<svg width="24" height="24" viewBox="0 0 24 24" fill="none" xmlns="http://www.w3.org/2000/svg">
<path d="M12.0001 5.49988C10.0701 5.49988 8.50011 7.06988 8.50011 8.99988C8.50011 10.5819 9.55611 11.9229 11.0001 12.3539V22.9999C11.0001 23.5519 11.4481 23.9999 12.0001 23.9999C12.5521 23.9999 13.0001 23.5519 13.0001 22.9999V12.3539C14.4441 11.9229 15.5001 10.5819 15.5001 8.99988C15.5001 7.06988 13.9301 5.49988 12.0001 5.49988ZM12.0001 10.4999C11.1731 10.4999 10.5001 9.82688 10.5001 8.99988C10.5001 8.17288 11.1731 7.49988 12.0001 7.49988C12.8271 7.49988 13.5001 8.17288 13.5001 8.99988C13.5001 9.82688 12.8271 10.4999 12.0001 10.4999ZM7.75711 4.83288C6.62411 5.96588 6.00011 7.47288 6.00011 9.07588C6.00011 10.6789 6.62411 12.1849 7.75711 13.3189C8.14811 13.7089 8.14811 14.3419 7.75711 14.7329C7.56211 14.9279 7.30611 15.0259 7.05011 15.0259C6.79411 15.0259 6.53811 14.9279 6.34311 14.7329C4.83211 13.2219 4.00011 11.2129 4.00011 9.07588C4.00011 6.93888 4.83211 4.92988 6.34311 3.41888C6.73411 3.02788 7.36611 3.02788 7.75711 3.41888C8.14811 3.80988 8.14811 4.44188 7.75711 4.83288ZM20.0001 9.07588C20.0001 11.2129 19.1681 13.2219 17.6571 14.7329C17.4621 14.9279 17.2061 15.0259 16.9501 15.0259C16.6941 15.0259 16.4381 14.9279 16.2431 14.7329C15.8521 14.3419 15.8521 13.7089 16.2431 13.3189C17.3761 12.1859 18.0001 10.6789 18.0001 9.07588C18.0001 7.47288 17.3761 5.96688 16.2431 4.83288C15.8521 4.44188 15.8521 3.80988 16.2431 3.41888C16.6341 3.02788 17.2661 3.02788 17.6571 3.41888C19.1681 4.92988 20.0001 6.93888 20.0001 9.07588ZM4.92911 16.1469C5.32011 16.5379 5.32011 17.1699 4.92911 17.5609C4.73411 17.7559 4.47811 17.8539 4.22211 17.8539C3.96611 17.8539 3.71011 17.7559 3.51511 17.5609C-1.16389 12.8819 -1.16389 5.26888 3.51511 0.589881C3.90611 0.198881 4.53811 0.198881 4.92911 0.589881C5.32011 0.980881 5.32011 1.61288 4.92911 2.00388C1.03111 5.90288 1.03111 12.2479 4.92911 16.1469ZM20.4861 17.5609C20.2911 17.7559 20.0351 17.8539 19.7791 17.8539C19.5231 17.8539 19.2671 17.7559 19.0721 17.5609C18.6811 17.1699 18.6811 16.5379 19.0721 16.1469C22.9701 12.2479 22.9701 5.90388 19.0721 2.00488C18.6811 1.61388 18.6811 0.981881 19.0721 0.590881C19.4631 0.199881 20.0951 0.199881 20.4861 0.590881C25.1651 5.26888 25.1651 12.8829 20.4861 17.5609Z" fill="#06332E"/>
</svg>
