<svg width="24" height="24" viewBox="0 0 24 24" fill="none" xmlns="http://www.w3.org/2000/svg">
<path d="M12.9409 3.65271L13.8696 3.81091L14.7749 4.07166L15.645 4.43201L16.4692 4.88708L17.2378 5.43298L17.9399 6.05994L18.5679 6.76306L19.1128 7.53064L19.5679 8.35583L19.9292 9.22595L20.1899 10.1312L20.3472 11.0599L20.3999 12.0004L20.3472 12.9408L20.1899 13.8695L19.9292 14.7748L19.5679 15.6449L19.1128 16.4691L18.5679 17.2377L17.9399 17.9398L17.2378 18.5677L16.4692 19.1127L15.645 19.5677L14.7749 19.9291L13.8696 20.1898L12.9409 20.347L12.0005 20.3998L11.0601 20.347L10.1313 20.1898L9.22607 19.9291L8.35596 19.5677L7.53076 19.1127L6.76318 18.5677L6.06006 17.9398L5.43311 17.2377L4.88721 16.4691L4.43213 15.6449L4.07178 14.7748L3.81104 13.8695L3.65283 12.9408L3.6001 12.0004L3.65283 11.0599L3.81104 10.1312L4.07178 9.22595L4.43213 8.35583L4.88721 7.53064L5.43311 6.76306L6.06006 6.05994L6.76318 5.43298L7.53076 4.88708L8.35596 4.43201L9.22607 4.07166L10.1313 3.81091L11.0601 3.65271L12.0005 3.59998L12.9409 3.65271Z" fill="#06332E"/>
<path d="M12.9409 3.65271L13.1088 2.66691C13.0718 2.6606 13.0344 2.65638 12.9969 2.65428L12.9409 3.65271ZM13.8696 3.81091L14.1464 2.84998C14.1106 2.83967 14.0743 2.83137 14.0376 2.82511L13.8696 3.81091ZM14.7749 4.07166L15.1575 3.14775C15.123 3.13344 15.0876 3.12107 15.0517 3.11072L14.7749 4.07166ZM15.645 4.43201L16.1284 3.55658C16.0957 3.53856 16.0621 3.52237 16.0276 3.5081L15.645 4.43201ZM16.4692 4.88708L17.0483 4.07181C17.0176 4.04997 16.9856 4.02989 16.9526 4.01166L16.4692 4.88708ZM17.2378 5.43298L17.9038 4.68706C17.8762 4.66235 17.8471 4.6392 17.8169 4.61771L17.2378 5.43298ZM17.9399 6.05994L18.6858 5.39384C18.6607 5.36575 18.6341 5.3391 18.606 5.31402L17.9399 6.05994ZM18.5679 6.76306L19.3833 6.18418C19.3617 6.15384 19.3385 6.12472 19.3137 6.09696L18.5679 6.76306ZM19.1128 7.53064L19.9885 7.04773C19.9702 7.01462 19.9501 6.98258 19.9282 6.95176L19.1128 7.53064ZM19.5679 8.35583L20.4914 7.97232C20.4773 7.93833 20.4613 7.90515 20.4435 7.87292L19.5679 8.35583ZM19.9292 9.22595L20.8901 8.94918C20.8797 8.91292 20.8672 8.87729 20.8527 8.84244L19.9292 9.22595ZM20.1899 10.1312L21.1759 9.96431C21.1696 9.92725 21.1613 9.89057 21.1509 9.85445L20.1899 10.1312ZM20.3472 11.0599L21.3456 11.0039C21.3435 10.9668 21.3394 10.9297 21.3331 10.893L20.3472 11.0599ZM20.3999 12.0004L21.3983 12.0564C21.4004 12.0191 21.4004 11.9817 21.3983 11.9444L20.3999 12.0004ZM20.3472 12.9408L21.3331 13.1077C21.3394 13.071 21.3435 13.034 21.3456 12.9968L20.3472 12.9408ZM20.1899 13.8695L21.1509 14.1463C21.1613 14.1102 21.1696 14.0735 21.1759 14.0364L20.1899 13.8695ZM19.9292 14.7748L20.8527 15.1583C20.8672 15.1234 20.8797 15.0878 20.8901 15.0516L19.9292 14.7748ZM19.5679 15.6449L20.4433 16.1282C20.4612 16.0959 20.4772 16.0626 20.4914 16.0284L19.5679 15.6449ZM19.1128 16.4691L19.9286 17.0475C19.9502 17.017 19.9701 16.9852 19.9882 16.9525L19.1128 16.4691ZM18.5679 17.2377L19.3133 17.9043C19.3384 17.8762 19.3619 17.8468 19.3836 17.8161L18.5679 17.2377ZM17.9399 17.9398L18.6066 18.6852C18.6343 18.6604 18.6606 18.6341 18.6853 18.6064L17.9399 17.9398ZM17.2378 18.5677L17.8162 19.3835C17.8469 19.3617 17.8763 19.3382 17.9044 19.3132L17.2378 18.5677ZM16.4692 19.1127L16.9526 19.9881C16.9854 19.97 17.0171 19.9501 17.0476 19.9284L16.4692 19.1127ZM15.645 19.5677L16.0285 20.4913C16.0627 20.4771 16.096 20.461 16.1284 20.4432L15.645 19.5677ZM14.7749 19.9291L15.0517 20.89C15.0879 20.8796 15.1236 20.8671 15.1584 20.8526L14.7749 19.9291ZM13.8696 20.1898L14.0365 21.1758C14.0736 21.1695 14.1103 21.1612 14.1464 21.1508L13.8696 20.1898ZM12.9409 20.347L12.9969 21.3455C13.0341 21.3434 13.0711 21.3392 13.1078 21.333L12.9409 20.347ZM12.0005 20.3998L11.9445 21.3982C11.9818 21.4003 12.0192 21.4003 12.0565 21.3982L12.0005 20.3998ZM11.0601 20.347L10.8931 21.333C10.9299 21.3392 10.9669 21.3434 11.0041 21.3455L11.0601 20.347ZM10.1313 20.1898L9.85457 21.1508C9.89069 21.1612 9.92737 21.1695 9.96443 21.1758L10.1313 20.1898ZM9.22607 19.9291L8.84256 20.8526C8.87741 20.8671 8.91304 20.8796 8.9493 20.89L9.22607 19.9291ZM8.35596 19.5677L7.87304 20.4434C7.90527 20.4612 7.93846 20.4772 7.97245 20.4913L8.35596 19.5677ZM7.53076 19.1127L6.95188 19.9281C6.98271 19.95 7.01475 19.9701 7.04785 19.9883L7.53076 19.1127ZM6.76318 18.5677L6.09709 19.3136C6.12484 19.3384 6.15396 19.3616 6.1843 19.3832L6.76318 18.5677ZM6.06006 17.9398L5.31414 18.6059C5.33922 18.6339 5.36587 18.6606 5.39396 18.6857L6.06006 17.9398ZM5.43311 17.2377L4.61783 17.8168C4.63932 17.847 4.66247 17.876 4.68719 17.9037L5.43311 17.2377ZM4.88721 16.4691L4.01178 16.9525C4.03001 16.9855 4.0501 17.0174 4.07194 17.0482L4.88721 16.4691ZM4.43213 15.6449L3.50823 16.0275C3.52249 16.062 3.53868 16.0956 3.5567 16.1282L4.43213 15.6449ZM4.07178 14.7748L3.11084 15.0516C3.1212 15.0875 3.13356 15.1228 3.14787 15.1574L4.07178 14.7748ZM3.81104 13.8695L2.82524 14.0374C2.83149 14.0742 2.83979 14.1105 2.8501 14.1463L3.81104 13.8695ZM3.65283 12.9408L2.6544 12.9968C2.6565 13.0343 2.66072 13.0717 2.66703 13.1087L3.65283 12.9408ZM3.6001 12.0004L2.60167 11.9444C2.59957 11.9817 2.59957 12.0191 2.60167 12.0564L3.6001 12.0004ZM3.65283 11.0599L2.66703 10.892C2.66072 10.9291 2.6565 10.9664 2.6544 11.0039L3.65283 11.0599ZM3.81104 10.1312L2.8501 9.85445C2.83979 9.89024 2.83149 9.92658 2.82524 9.9633L3.81104 10.1312ZM4.07178 9.22595L3.14787 8.84333C3.13356 8.87789 3.1212 8.91323 3.11084 8.94918L4.07178 9.22595ZM4.43213 8.35583L3.55646 7.87292C3.53853 7.90543 3.52243 7.93891 3.50823 7.97321L4.43213 8.35583ZM4.88721 7.53064L4.07228 6.95107C4.05021 6.98211 4.02993 7.01438 4.01154 7.04773L4.88721 7.53064ZM5.43311 6.76306L4.68673 6.09754C4.66232 6.12491 4.63944 6.15361 4.61818 6.18349L5.43311 6.76306ZM6.06006 6.05994L5.39454 5.31356C5.36606 5.33895 5.33907 5.36594 5.31368 5.39442L6.06006 6.05994ZM6.76318 5.43298L6.18361 4.61806C6.15373 4.63932 6.12503 4.6622 6.09766 4.6866L6.76318 5.43298ZM7.53076 4.88708L7.04785 4.01142C7.0145 4.02981 6.98223 4.05009 6.95119 4.07216L7.53076 4.88708ZM8.35596 4.43201L7.97333 3.5081C7.93903 3.52231 7.90555 3.53841 7.87304 3.55634L8.35596 4.43201ZM9.22607 4.07166L8.9493 3.11072C8.91335 3.12107 8.87801 3.13344 8.84345 3.14775L9.22607 4.07166ZM10.1313 3.81091L9.96342 2.82511C9.9267 2.83137 9.89036 2.83967 9.85457 2.84998L10.1313 3.81091ZM11.0601 3.65271L11.0041 2.65428C10.9666 2.65638 10.9292 2.6606 10.8921 2.66691L11.0601 3.65271ZM12.0005 3.59998L12.0565 2.60154C12.0192 2.59945 11.9818 2.59945 11.9445 2.60154L12.0005 3.59998ZM12.9409 3.65271L12.773 4.63851L13.7017 4.79671L13.8696 3.81091L14.0376 2.82511L13.1088 2.66691L12.9409 3.65271ZM13.8696 3.81091L13.5929 4.77185L14.4981 5.03259L14.7749 4.07166L15.0517 3.11072L14.1464 2.84998L13.8696 3.81091ZM14.7749 4.07166L14.3923 4.99556L15.2624 5.35591L15.645 4.43201L16.0276 3.5081L15.1575 3.14775L14.7749 4.07166ZM15.645 4.43201L15.1617 5.30743L15.9859 5.76251L16.4692 4.88708L16.9526 4.01166L16.1284 3.55658L15.645 4.43201ZM16.4692 4.88708L15.8902 5.70236L16.6587 6.24825L17.2378 5.43298L17.8169 4.61771L17.0483 4.07181L16.4692 4.88708ZM17.2378 5.43298L16.5718 6.1789L17.2739 6.80586L17.9399 6.05994L18.606 5.31402L17.9038 4.68706L17.2378 5.43298ZM17.9399 6.05994L17.1941 6.72603L17.822 7.42916L18.5679 6.76306L19.3137 6.09696L18.6858 5.39384L17.9399 6.05994ZM18.5679 6.76306L17.7525 7.34194L18.2974 8.10952L19.1128 7.53064L19.9282 6.95176L19.3833 6.18418L18.5679 6.76306ZM19.1128 7.53064L18.2371 8.01355L18.6922 8.83875L19.5679 8.35583L20.4435 7.87292L19.9885 7.04773L19.1128 7.53064ZM19.5679 8.35583L18.6443 8.73935L19.0057 9.60946L19.9292 9.22595L20.8527 8.84244L20.4914 7.97232L19.5679 8.35583ZM19.9292 9.22595L18.9683 9.50273L19.229 10.408L20.1899 10.1312L21.1509 9.85445L20.8901 8.94918L19.9292 9.22595ZM20.1899 10.1312L19.204 10.2981L19.3612 11.2269L20.3472 11.0599L21.3331 10.893L21.1759 9.96431L20.1899 10.1312ZM20.3472 11.0599L19.3487 11.1159L19.4015 12.0564L20.3999 12.0004L21.3983 11.9444L21.3456 11.0039L20.3472 11.0599ZM20.3999 12.0004L19.4015 11.9444L19.3487 12.8848L20.3472 12.9408L21.3456 12.9968L21.3983 12.0564L20.3999 12.0004ZM20.3472 12.9408L19.3612 12.7739L19.204 13.7026L20.1899 13.8695L21.1759 14.0364L21.3331 13.1077L20.3472 12.9408ZM20.1899 13.8695L19.229 13.5927L18.9683 14.498L19.9292 14.7748L20.8901 15.0516L21.1509 14.1463L20.1899 13.8695ZM19.9292 14.7748L19.0057 14.3913L18.6443 15.2614L19.5679 15.6449L20.4914 16.0284L20.8527 15.1583L19.9292 14.7748ZM19.5679 15.6449L18.6924 15.1615L18.2374 15.9858L19.1128 16.4691L19.9882 16.9525L20.4433 16.1282L19.5679 15.6449ZM19.1128 16.4691L18.297 15.8907L17.7521 16.6593L18.5679 17.2377L19.3836 17.8161L19.9286 17.0475L19.1128 16.4691ZM18.5679 17.2377L17.8225 16.5711L17.1945 17.2732L17.9399 17.9398L18.6853 18.6064L19.3133 17.9043L18.5679 17.2377ZM17.9399 17.9398L17.2733 17.1944L16.5712 17.8223L17.2378 18.5677L17.9044 19.3132L18.6066 18.6852L17.9399 17.9398ZM17.2378 18.5677L16.6594 17.752L15.8908 18.2969L16.4692 19.1127L17.0476 19.9284L17.8162 19.3835L17.2378 18.5677ZM16.4692 19.1127L15.9859 18.2372L15.1617 18.6923L15.645 19.5677L16.1284 20.4432L16.9526 19.9881L16.4692 19.1127ZM15.645 19.5677L15.2615 18.6442L14.3914 19.0055L14.7749 19.9291L15.1584 20.8526L16.0285 20.4913L15.645 19.5677ZM14.7749 19.9291L14.4981 18.9681L13.5929 19.2289L13.8696 20.1898L14.1464 21.1508L15.0517 20.89L14.7749 19.9291ZM13.8696 20.1898L13.7027 19.2038L12.774 19.3611L12.9409 20.347L13.1078 21.333L14.0365 21.1758L13.8696 20.1898ZM12.9409 20.347L12.8849 19.3486L11.9445 19.4013L12.0005 20.3998L12.0565 21.3982L12.9969 21.3455L12.9409 20.347ZM12.0005 20.3998L12.0565 19.4013L11.116 19.3486L11.0601 20.347L11.0041 21.3455L11.9445 21.3982L12.0005 20.3998ZM11.0601 20.347L11.227 19.3611L10.2983 19.2038L10.1313 20.1898L9.96443 21.1758L10.8931 21.333L11.0601 20.347ZM10.1313 20.1898L10.4081 19.2289L9.50285 18.9681L9.22607 19.9291L8.9493 20.89L9.85457 21.1508L10.1313 20.1898ZM9.22607 19.9291L9.60959 19.0055L8.73947 18.6442L8.35596 19.5677L7.97245 20.4913L8.84256 20.8526L9.22607 19.9291ZM8.35596 19.5677L8.83887 18.6921L8.01367 18.237L7.53076 19.1127L7.04785 19.9883L7.87304 20.4434L8.35596 19.5677ZM7.53076 19.1127L8.10964 18.2973L7.34206 17.7523L6.76318 18.5677L6.1843 19.3832L6.95188 19.9281L7.53076 19.1127ZM6.76318 18.5677L7.42928 17.8219L6.72616 17.194L6.06006 17.9398L5.39396 18.6857L6.09709 19.3136L6.76318 18.5677ZM6.06006 17.9398L6.80598 17.2738L6.17902 16.5716L5.43311 17.2377L4.68719 17.9037L5.31414 18.6059L6.06006 17.9398ZM5.43311 17.2377L6.24838 16.6586L5.70248 15.89L4.88721 16.4691L4.07194 17.0482L4.61783 17.8168L5.43311 17.2377ZM4.88721 16.4691L5.76263 15.9858L5.30756 15.1615L4.43213 15.6449L3.5567 16.1282L4.01178 16.9525L4.88721 16.4691ZM4.43213 15.6449L5.35603 15.2623L4.99568 14.3922L4.07178 14.7748L3.14787 15.1574L3.50823 16.0275L4.43213 15.6449ZM4.07178 14.7748L5.03271 14.498L4.77197 13.5927L3.81104 13.8695L2.8501 14.1463L3.11084 15.0516L4.07178 14.7748ZM3.81104 13.8695L4.79683 13.7016L4.63863 12.7729L3.65283 12.9408L2.66703 13.1087L2.82524 14.0374L3.81104 13.8695ZM3.65283 12.9408L4.65126 12.8848L4.59853 11.9444L3.6001 12.0004L2.60167 12.0564L2.6544 12.9968L3.65283 12.9408ZM3.6001 12.0004L4.59853 12.0564L4.65126 11.1159L3.65283 11.0599L2.6544 11.0039L2.60167 11.9444L3.6001 12.0004ZM3.65283 11.0599L4.63863 11.2279L4.79683 10.2992L3.81104 10.1312L2.82524 9.9633L2.66703 10.892L3.65283 11.0599ZM3.81104 10.1312L4.77197 10.408L5.03271 9.50273L4.07178 9.22595L3.11084 8.94918L2.8501 9.85445L3.81104 10.1312ZM4.07178 9.22595L4.99568 9.60858L5.35603 8.73846L4.43213 8.35583L3.50823 7.97321L3.14787 8.84333L4.07178 9.22595ZM4.43213 8.35583L5.3078 8.83875L5.76288 8.01355L4.88721 7.53064L4.01154 7.04773L3.55646 7.87292L4.43213 8.35583ZM4.88721 7.53064L5.70213 8.11021L6.24803 7.34263L5.43311 6.76306L4.61818 6.18349L4.07228 6.95107L4.88721 7.53064ZM5.43311 6.76306L6.17948 7.42858L6.80644 6.72546L6.06006 6.05994L5.31368 5.39442L4.68673 6.09754L5.43311 6.76306ZM6.06006 6.05994L6.72558 6.80632L7.4287 6.17936L6.76318 5.43298L6.09766 4.6866L5.39454 5.31356L6.06006 6.05994ZM6.76318 5.43298L7.34275 6.24791L8.11033 5.70201L7.53076 4.88708L6.95119 4.07216L6.18361 4.61806L6.76318 5.43298ZM7.53076 4.88708L8.01367 5.76275L8.83887 5.30768L8.35596 4.43201L7.87304 3.55634L7.04785 4.01142L7.53076 4.88708ZM8.35596 4.43201L8.73858 5.35591L9.6087 4.99556L9.22607 4.07166L8.84345 3.14775L7.97333 3.5081L8.35596 4.43201ZM9.22607 4.07166L9.50285 5.03259L10.4081 4.77185L10.1313 3.81091L9.85457 2.84998L8.9493 3.11072L9.22607 4.07166ZM10.1313 3.81091L10.2993 4.79671L11.228 4.63851L11.0601 3.65271L10.8921 2.66691L9.96342 2.82511L10.1313 3.81091ZM11.0601 3.65271L11.116 4.65114L12.0565 4.59841L12.0005 3.59998L11.9445 2.60154L11.0041 2.65428L11.0601 3.65271ZM12.0005 3.59998L11.9445 4.59841L12.8849 4.65114L12.9409 3.65271L12.9969 2.65428L12.0565 2.60154L12.0005 3.59998Z" fill="#06332E"/>
<path d="M7.56936 12.0545L9.81944 14.3259C10.2081 14.7183 10.8383 14.7183 11.227 14.3259L16.4309 9.07267" stroke="white" stroke-width="2" stroke-linecap="round" stroke-linejoin="round"/>
</svg>
