<svg width="24" height="24" viewBox="0 0 24 24" fill="none" xmlns="http://www.w3.org/2000/svg">
<path d="M16 16.75H8C7.80149 16.7487 7.61149 16.6693 7.47112 16.5289C7.33075 16.3885 7.25131 16.1985 7.25 16V8C7.25131 7.80149 7.33075 7.61149 7.47112 7.47112C7.61149 7.33075 7.80149 7.25131 8 7.25H16C16.1985 7.25131 16.3885 7.33075 16.5289 7.47112C16.6693 7.61149 16.7487 7.80149 16.75 8V16C16.7487 16.1985 16.6693 16.3885 16.5289 16.5289C16.3885 16.6693 16.1985 16.7487 16 16.75ZM8.75 15.25H15.25V8.75H8.75V15.25Z" fill="#323232"/>
<path d="M5 22.75C4.00544 22.75 3.05161 22.3549 2.34835 21.6517C1.64509 20.9484 1.25 19.9946 1.25 19C1.25 18.0054 1.64509 17.0516 2.34835 16.3483C3.05161 15.6451 4.00544 15.25 5 15.25H8C8.19851 15.2513 8.38851 15.3307 8.52888 15.4711C8.66925 15.6115 8.74869 15.8015 8.75 16V19C8.74973 19.9945 8.35456 20.9482 7.65136 21.6514C6.94815 22.3546 5.99448 22.7497 5 22.75ZM5 16.75C4.55499 16.75 4.11998 16.882 3.74997 17.1292C3.37996 17.3764 3.09157 17.7278 2.92127 18.139C2.75097 18.5501 2.70642 19.0025 2.79323 19.439C2.88005 19.8754 3.09434 20.2763 3.40901 20.591C3.72368 20.9057 4.12459 21.12 4.56105 21.2068C4.9975 21.2936 5.4499 21.249 5.86104 21.0787C6.27217 20.9084 6.62357 20.62 6.87081 20.25C7.11804 19.88 7.25 19.445 7.25 19V16.75H5Z" fill="#323232"/>
<path d="M8 8.75H5C4.25832 8.75 3.5333 8.53007 2.91661 8.11801C2.29993 7.70596 1.81928 7.12029 1.53545 6.43506C1.25162 5.74984 1.17736 4.99584 1.32206 4.26841C1.46675 3.54098 1.8239 2.8728 2.34835 2.34835C2.8728 1.8239 3.54098 1.46675 4.26841 1.32206C4.99584 1.17736 5.74984 1.25162 6.43506 1.53545C7.12029 1.81928 7.70596 2.29993 8.11801 2.91661C8.53007 3.5333 8.75 4.25832 8.75 5V8C8.74869 8.19851 8.66925 8.38851 8.52888 8.52888C8.38851 8.66925 8.19851 8.74869 8 8.75ZM5 2.75C4.40326 2.75 3.83097 2.98705 3.40901 3.40901C2.98705 3.83097 2.75 4.40326 2.75 5C2.75 5.59674 2.98705 6.16903 3.40901 6.59099C3.83097 7.01295 4.40326 7.25 5 7.25H7.25V5C7.24921 4.40351 7.0119 3.83167 6.59012 3.40989C6.16833 2.9881 5.5965 2.7508 5 2.75Z" fill="#323232"/>
<path d="M19 8.75H16C15.8015 8.74869 15.6115 8.66925 15.4711 8.52888C15.3307 8.38851 15.2513 8.19851 15.25 8V5C15.25 4.25832 15.4699 3.5333 15.882 2.91661C16.294 2.29993 16.8797 1.81928 17.5649 1.53545C18.2502 1.25162 19.0042 1.17736 19.7316 1.32206C20.459 1.46675 21.1272 1.8239 21.6517 2.34835C22.1761 2.8728 22.5332 3.54098 22.6779 4.26841C22.8226 4.99584 22.7484 5.74984 22.4645 6.43506C22.1807 7.12029 21.7001 7.70596 21.0834 8.11801C20.4667 8.53007 19.7417 8.75 19 8.75ZM16.75 7.25H19C19.445 7.25 19.88 7.11804 20.25 6.87081C20.62 6.62358 20.9084 6.27217 21.0787 5.86104C21.249 5.44991 21.2936 4.99751 21.2068 4.56105C21.12 4.12459 20.9057 3.72368 20.591 3.40901C20.2763 3.09434 19.8754 2.88005 19.439 2.79323C19.0025 2.70642 18.5501 2.75098 18.139 2.92127C17.7278 3.09157 17.3764 3.37996 17.1292 3.74997C16.882 4.11998 16.75 4.55499 16.75 5V7.25Z" fill="#323232"/>
<path d="M19 22.75C18.0055 22.7497 17.0518 22.3546 16.3486 21.6514C15.6454 20.9482 15.2503 19.9945 15.25 19V16C15.2513 15.8015 15.3307 15.6115 15.4711 15.4711C15.6115 15.3307 15.8015 15.2513 16 15.25H19C19.9946 15.25 20.9484 15.6451 21.6517 16.3483C22.3549 17.0516 22.75 18.0054 22.75 19C22.75 19.9946 22.3549 20.9484 21.6517 21.6517C20.9484 22.3549 19.9946 22.75 19 22.75ZM16.75 16.75V19C16.75 19.445 16.882 19.88 17.1292 20.25C17.3764 20.62 17.7278 20.9084 18.139 21.0787C18.5501 21.249 19.0025 21.2936 19.439 21.2068C19.8754 21.12 20.2763 20.9057 20.591 20.591C20.9057 20.2763 21.12 19.8754 21.2068 19.439C21.2936 19.0025 21.249 18.5501 21.0787 18.139C20.9084 17.7278 20.62 17.3764 20.25 17.1292C19.88 16.882 19.445 16.75 19 16.75H16.75Z" fill="#323232"/>
</svg>
