<svg width="24" height="25" viewBox="0 0 24 25" fill="none" xmlns="http://www.w3.org/2000/svg">
<path d="M11.9998 23.251C11.7595 23.2529 11.5203 23.2192 11.2898 23.151C8.75534 22.4455 6.51583 20.9417 4.90359 18.8627C3.29135 16.7837 2.3923 14.2404 2.33984 11.61L2.33984 7.22004C2.3641 6.63423 2.54969 6.06651 2.87613 5.57949C3.20258 5.09247 3.6572 4.70507 4.18984 4.46004L9.75984 2.18004C11.1949 1.59005 12.8048 1.59005 14.2398 2.18004L19.8098 4.46004C20.3425 4.70507 20.7971 5.09247 21.1236 5.57949C21.45 6.06651 21.6356 6.63423 21.6598 7.22004V11.61C21.6023 14.2389 20.7013 16.7796 19.0898 18.8574C17.4783 20.9353 15.2417 22.4401 12.7098 23.15C12.4795 23.2185 12.2402 23.2526 11.9998 23.251ZM11.9998 3.25104C11.427 3.25128 10.8597 3.36338 10.3298 3.58104L4.75984 5.86004C4.5017 5.9901 4.28143 6.18449 4.12028 6.42446C3.95913 6.66442 3.86255 6.94187 3.83984 7.23004V11.62C3.89158 13.9218 4.68286 16.1458 6.09661 17.9629C7.51035 19.7801 9.47148 21.0939 11.6898 21.71C11.8922 21.7701 12.1075 21.7701 12.3098 21.71C14.5282 21.0939 16.4893 19.7801 17.9031 17.9629C19.3168 16.1458 20.1081 13.9218 20.1598 11.62V7.23004C20.1371 6.94187 20.0406 6.66442 19.8794 6.42446C19.7183 6.18449 19.498 5.9901 19.2398 5.86004L13.6698 3.58004C13.1399 3.36272 12.5726 3.25096 11.9998 3.25104Z" fill="#323232"/>
<path d="M12 13.75C11.4561 13.75 10.9244 13.5887 10.4722 13.2865C10.0199 12.9844 9.66747 12.5549 9.45933 12.0524C9.25119 11.5499 9.19673 10.997 9.30284 10.4635C9.40895 9.93006 9.67086 9.44005 10.0555 9.05546C10.4401 8.67086 10.9301 8.40895 11.4635 8.30284C11.997 8.19673 12.5499 8.25119 13.0524 8.45933C13.5549 8.66747 13.9844 9.01995 14.2865 9.47218C14.5887 9.92442 14.75 10.4561 14.75 11C14.7503 11.3612 14.6793 11.7189 14.5412 12.0527C14.4031 12.3865 14.2005 12.6897 13.9451 12.9451C13.6897 13.2005 13.3865 13.4031 13.0527 13.5412C12.7189 13.6793 12.3612 13.7503 12 13.75ZM12 9.75C11.7528 9.75 11.5111 9.82331 11.3055 9.96066C11.1 10.098 10.9398 10.2932 10.8452 10.5216C10.7505 10.7501 10.7258 11.0014 10.774 11.2439C10.8223 11.4863 10.9413 11.7091 11.1161 11.8839C11.2909 12.0587 11.5137 12.1778 11.7561 12.226C11.9986 12.2742 12.2499 12.2495 12.4784 12.1549C12.7068 12.0602 12.902 11.9 13.0393 11.6945C13.1767 11.4889 13.25 11.2472 13.25 11C13.25 10.6685 13.1183 10.3505 12.8839 10.1161C12.6495 9.8817 12.3315 9.75 12 9.75Z" fill="#323232"/>
<path d="M12 16.75C11.8015 16.7487 11.6115 16.6693 11.4711 16.5289C11.3307 16.3885 11.2513 16.1985 11.25 16V13C11.2513 12.8015 11.3307 12.6115 11.4711 12.4711C11.6115 12.3307 11.8015 12.2513 12 12.25C12.1985 12.2513 12.3885 12.3307 12.5289 12.4711C12.6693 12.6115 12.7487 12.8015 12.75 13V16C12.7487 16.1985 12.6693 16.3885 12.5289 16.5289C12.3885 16.6693 12.1985 16.7487 12 16.75Z" fill="#323232"/>
</svg>
