<svg width="24" height="24" viewBox="0 0 24 24" fill="none" xmlns="http://www.w3.org/2000/svg">
<path d="M12 19.25C10.5661 19.25 9.16438 18.8248 7.97212 18.0282C6.77986 17.2315 5.85061 16.0992 5.30188 14.7745C4.75314 13.4497 4.60957 11.992 4.88931 10.5856C5.16905 9.17924 5.85955 7.88741 6.87348 6.87348C7.88741 5.85955 9.17924 5.16905 10.5856 4.88931C11.992 4.60957 13.4497 4.75314 14.7745 5.30188C16.0992 5.85061 17.2315 6.77986 18.0282 7.97212C18.8248 9.16438 19.25 10.5661 19.25 12C19.2487 13.9224 18.4844 15.7657 17.1251 17.1251C15.7657 18.4844 13.9224 19.2487 12 19.25ZM12 6.25C10.8628 6.25 9.75106 6.58723 8.80547 7.21905C7.85989 7.85087 7.1229 8.7489 6.6877 9.79957C6.25249 10.8502 6.13862 12.0064 6.36049 13.1218C6.58235 14.2372 7.12999 15.2617 7.93414 16.0659C8.73829 16.87 9.76284 17.4177 10.8782 17.6395C11.9936 17.8614 13.1498 17.7475 14.2004 17.3123C15.2511 16.8771 16.1491 16.1401 16.781 15.1945C17.4128 14.2489 17.75 13.1372 17.75 12C17.7482 10.4756 17.1418 9.01412 16.0638 7.93619C14.9859 6.85825 13.5244 6.25186 12 6.25Z" fill="#323232"/>
<path d="M12 22.96C11.8709 22.9641 11.7423 22.9424 11.6217 22.8962C11.5012 22.8499 11.3911 22.78 11.2979 22.6905C11.2047 22.6011 11.1304 22.4939 11.0792 22.3753C11.0281 22.2568 11.0011 22.1291 11 22V21.92C11 21.6548 11.1054 21.4004 11.2929 21.2129C11.4804 21.0254 11.7348 20.92 12 20.92C12.2652 20.92 12.5196 21.0254 12.7071 21.2129C12.8946 21.4004 13 21.6548 13 21.92C13.0007 22.1892 12.8968 22.4481 12.7102 22.6421C12.5237 22.8362 12.269 22.9501 12 22.96ZM19.14 20.14C18.8747 20.139 18.6202 20.035 18.43 19.85L18.3 19.72C18.1362 19.5287 18.0506 19.2826 18.0603 19.0309C18.07 18.7793 18.1743 18.5405 18.3524 18.3624C18.5305 18.1843 18.7693 18.08 19.0209 18.0703C19.2726 18.0606 19.5187 18.1462 19.71 18.31L19.84 18.44C20.0263 18.6274 20.1308 18.8808 20.1308 19.145C20.1308 19.4092 20.0263 19.6626 19.84 19.85C19.7483 19.9422 19.6392 20.0153 19.519 20.0651C19.3989 20.1149 19.2701 20.1403 19.14 20.14ZM4.86 20.14C4.5947 20.139 4.34016 20.035 4.15 19.85C3.96375 19.6626 3.85921 19.4092 3.85921 19.145C3.85921 18.8808 3.96375 18.6274 4.15 18.44L4.28 18.31C4.4713 18.1462 4.71738 18.0606 4.96905 18.0703C5.22073 18.08 5.45947 18.1843 5.63756 18.3624C5.81566 18.5405 5.91999 18.7793 5.92971 19.0309C5.93943 19.2826 5.85383 19.5287 5.69 19.72L5.56 19.85C5.37374 20.0347 5.12234 20.1389 4.86 20.14ZM22 13H21.92C21.6548 13 21.4004 12.8946 21.2129 12.7071C21.0254 12.5196 20.92 12.2652 20.92 12C20.92 11.7348 21.0254 11.4804 21.2129 11.2929C21.4004 11.1054 21.6548 11 21.92 11C22.1892 10.9993 22.4481 11.1032 22.6421 11.2898C22.8362 11.4763 22.9501 11.731 22.96 12C22.9641 12.1291 22.9424 12.2577 22.8962 12.3783C22.8499 12.4988 22.78 12.6089 22.6905 12.7021C22.6011 12.7953 22.4939 12.8696 22.3753 12.9208C22.2568 12.9719 22.1291 12.9989 22 13ZM2.08 13H2C1.73478 13 1.48043 12.8946 1.29289 12.7071C1.10536 12.5196 1 12.2652 1 12C1 11.7348 1.10536 11.4804 1.29289 11.2929C1.48043 11.1054 1.73478 11 2 11C2.26918 10.9993 2.52811 11.1032 2.72214 11.2898C2.91618 11.4763 3.03015 11.731 3.04 12C3.04414 12.1291 3.02243 12.2577 2.97615 12.3783C2.92987 12.4988 2.85996 12.6089 2.77052 12.7021C2.68108 12.7953 2.57392 12.8696 2.45534 12.9208C2.33676 12.9719 2.20914 12.9989 2.08 13ZM19.01 5.99C18.7447 5.98896 18.4902 5.88499 18.3 5.7C18.1137 5.51264 18.0092 5.25919 18.0092 4.995C18.0092 4.73081 18.1137 4.47736 18.3 4.29L18.43 4.16C18.6213 3.99617 18.8674 3.91057 19.1191 3.92029C19.3707 3.93001 19.6095 4.03434 19.7876 4.21244C19.9657 4.39053 20.07 4.62927 20.0797 4.88095C20.0894 5.13262 20.0038 5.3787 19.84 5.57L19.71 5.7C19.6183 5.7922 19.5092 5.8653 19.389 5.91508C19.2689 5.96485 19.1401 5.99032 19.01 5.99ZM4.99 5.99C4.7247 5.98896 4.47016 5.88499 4.28 5.7L4.15 5.56C3.98617 5.3687 3.90057 5.12262 3.91029 4.87095C3.92001 4.61927 4.02434 4.38053 4.20244 4.20244C4.38053 4.02434 4.61927 3.92001 4.87095 3.91029C5.12262 3.90057 5.3687 3.98617 5.56 4.15L5.69 4.28C5.87625 4.46736 5.98079 4.72081 5.98079 4.985C5.98079 5.24919 5.87625 5.50264 5.69 5.69C5.5996 5.78464 5.49097 5.86001 5.37067 5.91157C5.25037 5.96313 5.12088 5.98981 4.99 5.99ZM12 3.04C11.8709 3.04414 11.7423 3.02243 11.6217 2.97615C11.5012 2.92987 11.3911 2.85996 11.2979 2.77052C11.2047 2.68108 11.1304 2.57392 11.0792 2.45534C11.0281 2.33676 11.0011 2.20914 11 2.08V2C11 1.73478 11.1054 1.48043 11.2929 1.29289C11.4804 1.10536 11.7348 1 12 1C12.2652 1 12.5196 1.10536 12.7071 1.29289C12.8946 1.48043 13 1.73478 13 2C13.0007 2.26918 12.8968 2.52811 12.7102 2.72214C12.5237 2.91618 12.269 3.03015 12 3.04Z" fill="#323232"/>
</svg>
