<svg width="32" height="21" viewBox="0 0 32 21" fill="none" xmlns="http://www.w3.org/2000/svg">
<path d="M1 10C1 4.75329 5.2533 0.5 10.5 0.5H22.375C27.6217 0.5 31.875 4.75329 31.875 10C31.875 15.2467 27.6217 19.5 22.375 19.5H10.5C5.25329 19.5 1 15.2467 1 10Z" fill="#B9A779"/>
<g filter="url(#filter0_dd_114_1056)">
<path d="M10.5 1.6875C15.0909 1.6875 18.8125 5.40913 18.8125 10C18.8125 14.5909 15.0909 18.3125 10.5 18.3125C5.90913 18.3125 2.1875 14.5909 2.1875 10C2.1875 5.40913 5.90913 1.6875 10.5 1.6875Z" fill="white"/>
</g>
<defs>
<filter id="filter0_dd_114_1056" x="0.40625" y="0.5" width="20.1875" height="20.1875" filterUnits="userSpaceOnUse" color-interpolation-filters="sRGB">
<feFlood flood-opacity="0" result="BackgroundImageFix"/>
<feColorMatrix in="SourceAlpha" type="matrix" values="0 0 0 0 0 0 0 0 0 0 0 0 0 0 0 0 0 0 127 0" result="hardAlpha"/>
<feOffset dy="0.59375"/>
<feGaussianBlur stdDeviation="0.59375"/>
<feComposite in2="hardAlpha" operator="out"/>
<feColorMatrix type="matrix" values="0 0 0 0 0.0627451 0 0 0 0 0.0941176 0 0 0 0 0.156863 0 0 0 0.06 0"/>
<feBlend mode="normal" in2="BackgroundImageFix" result="effect1_dropShadow_114_1056"/>
<feColorMatrix in="SourceAlpha" type="matrix" values="0 0 0 0 0 0 0 0 0 0 0 0 0 0 0 0 0 0 127 0" result="hardAlpha"/>
<feOffset dy="0.59375"/>
<feGaussianBlur stdDeviation="0.890625"/>
<feComposite in2="hardAlpha" operator="out"/>
<feColorMatrix type="matrix" values="0 0 0 0 0.0627451 0 0 0 0 0.0941176 0 0 0 0 0.156863 0 0 0 0.1 0"/>
<feBlend mode="normal" in2="effect1_dropShadow_114_1056" result="effect2_dropShadow_114_1056"/>
<feBlend mode="normal" in="SourceGraphic" in2="effect2_dropShadow_114_1056" result="shape"/>
</filter>
</defs>
</svg>
