<svg width="236" height="80" viewBox="0 0 236 80" fill="none" xmlns="http://www.w3.org/2000/svg">
<path d="M236 45.8774V16.9457C236 16.4262 236 16.1664 235.839 16.005C235.677 15.8436 235.417 15.8436 234.898 15.8436H225.805C225.285 15.8436 225.026 15.8436 224.864 16.005C224.703 16.1664 224.703 16.4262 224.703 16.9457V45.8774C224.703 46.397 224.703 46.6568 224.864 46.8182C225.026 46.9796 225.285 46.9796 225.805 46.9796H234.898C235.417 46.9796 235.677 46.9796 235.839 46.8182C236 46.6568 236 46.397 236 45.8774Z" fill="#B9A779"/>
<path d="M224.703 5.51082V14.3281C224.703 14.8477 224.703 15.1074 224.541 15.2689C224.38 15.4303 224.12 15.4303 223.601 15.4303H215.979C215.862 15.4303 215.804 15.4303 215.747 15.4426C215.69 15.4549 215.639 15.478 215.536 15.5241C214.275 16.0938 213.629 16.5852 213.406 18.4612L213.817 44.9194C213.818 44.9853 213.819 45.0183 213.815 45.0512C213.812 45.0842 213.804 45.1165 213.789 45.1811C212.123 52.4649 209.64 54.7949 204.426 57.7229C204.302 57.7927 204.24 57.8275 204.172 57.8455C204.103 57.8634 204.032 57.8634 203.889 57.8634H192.465C191.945 57.8634 191.685 57.8634 191.524 57.702C191.363 57.5406 191.363 57.2808 191.363 56.7613V48.0817C191.363 47.5622 191.363 47.3024 191.524 47.141C191.685 46.9796 191.945 46.9796 192.465 46.9796H200.476C200.536 46.9796 200.567 46.9796 200.599 46.9757C200.631 46.9719 200.657 46.9658 200.707 46.9536C201.579 46.7433 202.528 46.2387 202.66 45.0508V15.6173C202.66 15.5236 202.66 15.4768 202.668 15.4305C202.676 15.3842 202.691 15.34 202.722 15.2518C204.836 9.28265 207.091 6.8603 212.931 4.48896L212.931 4.48892C213.029 4.44904 213.078 4.42909 213.131 4.41888C213.183 4.40866 213.236 4.40866 213.343 4.40866H223.601C224.12 4.40866 224.38 4.40866 224.541 4.57007C224.703 4.73148 224.703 4.99126 224.703 5.51082Z" fill="#B9A779"/>
<path d="M181.03 46.8418H191.087C191.163 46.8418 191.225 46.7801 191.225 46.7041V16.1191C191.225 15.5995 191.225 15.3398 191.063 15.1784C190.902 15.017 190.642 15.017 190.123 15.017H181.03C180.51 15.017 180.25 15.017 180.089 15.1784C179.928 15.3398 179.928 15.5995 179.928 16.1191V45.7397C179.928 46.2592 179.928 46.519 180.089 46.6804C180.25 46.8418 180.51 46.8418 181.03 46.8418Z" fill="#B9A779"/>
<path d="M184.198 49.5972H187.643C188.162 49.5972 188.422 49.5972 188.583 49.7586C188.745 49.92 188.745 50.1798 188.745 50.6994V53.7303H185.301C184.781 53.7303 184.521 53.7303 184.36 53.8917C184.198 54.0531 184.198 54.3129 184.198 54.8325V56.7613C184.198 57.2808 184.198 57.5406 184.037 57.702C183.876 57.8634 183.616 57.8634 183.096 57.8634H181.581C181.061 57.8634 180.802 57.8634 180.64 57.702C180.479 57.5406 180.479 57.2809 180.479 56.7615V52.0771C180.479 50.8372 182.407 49.5972 184.198 49.5972Z" fill="#B9A779"/>
<path d="M135.015 32.2382V22.8698C135.015 22.3503 135.015 22.0905 135.176 21.9291C135.337 21.7677 135.597 21.7677 136.117 21.7677H155.637C155.727 21.7677 155.773 21.7677 155.817 21.775C155.862 21.7823 155.905 21.7969 155.991 21.8261C162.61 24.0678 165.846 25.8622 168.149 32.0535C168.183 32.1441 168.2 32.1893 168.208 32.2378C168.217 32.2862 168.217 32.335 168.217 32.4325V45.8774C168.217 46.397 168.217 46.6568 168.056 46.8182C167.894 46.9796 167.635 46.9796 167.115 46.9796H158.022V56.7613C158.022 57.2808 158.022 57.5406 157.861 57.702C157.699 57.8634 157.44 57.8634 156.92 57.8634H123.423C123.295 57.8634 123.231 57.8634 123.169 57.8488C123.107 57.8342 123.049 57.8056 122.934 57.7484L122.934 57.7484C116.74 54.6702 114.752 52.468 113.82 47.9141C113.809 47.8614 113.804 47.835 113.801 47.8073C113.798 47.7796 113.798 47.7522 113.798 47.6974V22.8698C113.798 22.3503 113.798 22.0905 113.959 21.9291C114.121 21.7677 114.381 21.7677 114.9 21.7677H122.064C122.584 21.7677 122.844 21.7677 123.005 21.9291C123.166 22.0905 123.166 22.3503 123.166 22.8698V45.1308C123.166 45.231 123.166 45.2811 123.176 45.3331C123.187 45.3851 123.203 45.4265 123.237 45.5094L123.237 45.5095C123.752 46.7876 124.442 47.1057 126.197 46.9796H158.022V35.8202C158.082 34.2494 157.474 33.6262 156.072 32.7987C155.949 32.7265 155.888 32.6904 155.817 32.671C155.746 32.6515 155.672 32.6515 155.525 32.6515H135.428C135.2 32.6515 135.015 32.4665 135.015 32.2382Z" fill="#B9A779"/>
<path d="M112.834 57.0368V48.2195C112.834 47.9627 112.834 47.8344 112.792 47.7331C112.736 47.5981 112.628 47.4908 112.493 47.4348C112.392 47.3929 112.264 47.3929 112.007 47.3929H105.532C102.458 47.4237 101.368 46.9723 101.123 44.913V5.51082C101.123 4.99126 101.123 4.73148 100.962 4.57007C100.8 4.40866 100.541 4.40866 100.021 4.40866H91.7548C91.2353 4.40866 90.9755 4.40866 90.8141 4.57007C90.6527 4.73148 90.6527 4.99126 90.6527 5.51082V47.9764C90.6527 48.098 90.6527 48.1588 90.6659 48.2182C90.6792 48.2776 90.705 48.3324 90.7566 48.442C93.49 54.2493 96.1001 56.3 102.07 58.0927C102.147 58.1157 102.185 58.1273 102.225 58.1331C102.265 58.139 102.305 58.139 102.385 58.139H111.731C112.251 58.139 112.511 58.139 112.672 57.9776C112.834 57.8161 112.834 57.5564 112.834 57.0368Z" fill="#B9A779"/>
<path d="M77.4267 21.4921H68.3339C68.0771 21.4921 67.9488 21.4921 67.8475 21.5341C67.7125 21.59 67.6052 21.6973 67.5492 21.8323C67.5073 21.9336 67.5073 22.062 67.5073 22.3188V44.913C67.5279 46.4401 67.0703 46.8272 65.5785 46.8418H61.5832C61.0636 46.8418 60.8038 46.8418 60.6424 47.0032C60.481 47.1646 60.481 47.4244 60.481 47.944V57.1746C60.481 57.6941 60.481 57.9539 60.6424 58.1153C60.8038 58.2767 61.0636 58.2767 61.5832 58.2767H68.7431C68.8827 58.2767 68.9525 58.2767 69.0199 58.2594C69.0872 58.2422 69.1482 58.2087 69.2702 58.1417L69.2702 58.1417C74.5556 55.2393 76.7352 52.8403 78.4831 46.9961C78.5059 46.9199 78.5173 46.8818 78.5231 46.8421C78.5289 46.8024 78.5289 46.7625 78.5289 46.6828V22.5943C78.5289 22.0747 78.5289 21.815 78.3675 21.6535C78.2061 21.4921 77.9463 21.4921 77.4267 21.4921Z" fill="#B9A779"/>
<path d="M56.3479 46.6902V23.4209C56.3479 22.9014 56.3479 22.6416 56.1865 22.4802C56.0251 22.3188 55.7653 22.3188 55.2458 22.3188H45.8774C45.3578 22.3188 45.0981 22.3188 44.9367 22.4802C44.7752 22.6416 44.7752 22.9014 44.7752 23.4209V44.913C44.8135 46.4989 44.2581 46.9108 42.2954 46.8418H12.6748C12.1553 46.8418 11.8955 46.8418 11.7341 46.6804C11.5727 46.519 11.5727 46.2592 11.5727 45.7397V36.2049C11.5727 36.149 11.5727 36.121 11.5759 36.0916C11.579 36.0621 11.5844 36.0377 11.595 35.9887L11.5951 35.9886C11.8952 34.6121 12.5562 33.9033 14.3616 32.9192L14.3617 32.9192C14.4789 32.8553 14.5375 32.8234 14.6044 32.8063C14.6714 32.7893 14.7401 32.7893 14.8775 32.7893H32.927C33.4466 32.7893 33.7064 32.7893 33.8678 32.6279C34.0292 32.4665 34.0292 32.2067 34.0292 31.6871V22.5943C34.0292 22.0747 34.0292 21.815 33.8678 21.6535C33.7064 21.4921 33.4466 21.4921 32.927 21.4921H12.5728C12.4859 21.4921 12.4425 21.4921 12.3995 21.499C12.3566 21.5058 12.3151 21.5193 12.2321 21.5464C4.62975 24.0254 1.67292 26.7373 0.0219031 34.8848C0.0109694 34.9388 0.00550254 34.9657 0.00275127 34.9932C0 35.0206 0 35.048 0 35.1028V47.1174C0 47.6369 0 47.8967 0.161408 48.0581C0.322815 48.2195 0.582597 48.2195 1.10216 48.2195H10.4705C10.9901 48.2195 11.2499 48.2195 11.4113 48.3809C11.5727 48.5423 11.5727 48.8021 11.5727 49.3217V57.1746C11.5727 57.6941 11.5727 57.9539 11.7341 58.1153C11.8955 58.2767 12.1553 58.2767 12.6748 58.2767H44.6271C44.7013 58.2767 44.7384 58.2767 44.7752 58.2717C44.812 58.2667 44.8479 58.2568 44.9197 58.237C51.1238 56.524 54.1082 54.7156 56.306 46.9903C56.3269 46.9168 56.3374 46.88 56.3426 46.8421C56.3479 46.8043 56.3479 46.7662 56.3479 46.6902Z" fill="#B9A779"/>
<path d="M140.428 2.41956C140.676 1.65799 141.753 1.65798 142 2.41956L143.163 5.99739C143.274 6.33798 143.591 6.56857 143.949 6.56857H147.711C148.512 6.56857 148.845 7.59326 148.197 8.06394L145.153 10.2752C144.864 10.4857 144.742 10.8588 144.853 11.1994L146.016 14.7772C146.263 15.5388 145.391 16.1721 144.744 15.7014L141.7 13.4902C141.41 13.2797 141.018 13.2797 140.728 13.4902L137.685 15.7014C137.037 16.1721 136.165 15.5388 136.413 14.7772L137.575 11.1994C137.686 10.8588 137.565 10.4857 137.275 10.2752L134.232 8.06394C133.584 7.59327 133.917 6.56857 134.717 6.56857H138.479C138.838 6.56857 139.155 6.33798 139.266 5.99739L140.428 2.41956Z" fill="#B9A779"/>
<path d="M118.109 62.7628C118.357 62.0012 119.434 62.0012 119.682 62.7628L120.844 66.3407C120.955 66.6812 121.272 66.9118 121.63 66.9118H125.392C126.193 66.9118 126.526 67.9365 125.878 68.4072L122.835 70.6184C122.545 70.8289 122.424 71.202 122.534 71.5426L123.697 75.1205C123.944 75.882 123.073 76.5153 122.425 76.0446L119.381 73.8334C119.092 73.6229 118.699 73.6229 118.41 73.8334L115.366 76.0446C114.718 76.5153 113.847 75.882 114.094 75.1205L115.257 71.5426C115.367 71.202 115.246 70.8289 114.956 70.6184L111.913 68.4072C111.265 67.9365 111.598 66.9118 112.399 66.9118H116.161C116.519 66.9118 116.836 66.6812 116.947 66.3407L118.109 62.7628Z" fill="#B9A779"/>
<path d="M51.9798 62.7628C52.2272 62.0012 53.3046 62.0012 53.5521 62.7628L54.7146 66.3407C54.8253 66.6812 55.1426 66.9118 55.5008 66.9118H59.2627C60.0635 66.9118 60.3964 67.9365 59.7486 68.4072L56.7051 70.6184C56.4154 70.8289 56.2941 71.202 56.4048 71.5426L57.5673 75.1205C57.8148 75.882 56.9431 76.5153 56.2953 76.0446L53.2518 73.8334C52.9621 73.6229 52.5698 73.6229 52.28 73.8334L49.2366 76.0446C48.5887 76.5153 47.7171 75.882 47.9645 75.1205L49.127 71.5426C49.2377 71.202 49.1165 70.8289 48.8267 70.6184L45.7833 68.4072C45.1354 67.9365 45.4684 66.9118 46.2691 66.9118H50.0311C50.3892 66.9118 50.7066 66.6812 50.8172 66.3407L51.9798 62.7628Z" fill="#B9A779"/>
<path d="M28.0078 2.41956C28.2552 1.65799 29.3326 1.65798 29.5801 2.41956L30.7426 5.99739C30.8533 6.33798 31.1707 6.56857 31.5288 6.56857H35.2907C36.0915 6.56857 36.4244 7.59326 35.7766 8.06394L32.7331 10.2752C32.4434 10.4857 32.3222 10.8588 32.4328 11.1994L33.5953 14.7772C33.8428 15.5388 32.9711 16.1721 32.3233 15.7014L29.2798 13.4902C28.9901 13.2797 28.5978 13.2797 28.3081 13.4902L25.2646 15.7014C24.6167 16.1721 23.7451 15.5388 23.9925 14.7772L25.155 11.1994C25.2657 10.8588 25.1445 10.4857 24.8548 10.2752L21.8113 8.06394C21.1634 7.59327 21.4964 6.56857 22.2971 6.56857H26.0591C26.4172 6.56857 26.7346 6.33798 26.8453 5.99739L28.0078 2.41956Z" fill="#B9A779"/>
<path d="M37.3761 62.7628C37.6236 62.0012 38.701 62.0012 38.9485 62.7628L40.111 66.3407C40.2216 66.6812 40.539 66.9118 40.8971 66.9118H44.6591C45.4599 66.9118 45.7928 67.9365 45.145 68.4072L42.1015 70.6184C41.8118 70.8289 41.6905 71.202 41.8012 71.5426L42.9637 75.1205C43.2111 75.882 42.3395 76.5153 41.6917 76.0446L38.6482 73.8334C38.3585 73.6229 37.9661 73.6229 37.6764 73.8334L34.6329 76.0446C33.9851 76.5153 33.1134 75.882 33.3609 75.1205L34.5234 71.5426C34.6341 71.202 34.5128 70.8289 34.2231 70.6184L31.1796 68.4072C30.5318 67.9365 30.8647 66.9118 31.6655 66.9118H35.4275C35.7856 66.9118 36.103 66.6812 36.2136 66.3407L37.3761 62.7628Z" fill="#B9A779"/>
<path d="M13.4041 2.41956C13.6516 1.65799 14.729 1.65798 14.9765 2.41956L16.139 5.99739C16.2496 6.33798 16.567 6.56857 16.9251 6.56857H20.6871C21.4879 6.56857 21.8208 7.59326 21.173 8.06394L18.1295 10.2752C17.8398 10.4857 17.7185 10.8588 17.8292 11.1994L18.9917 14.7772C19.2392 15.5388 18.3675 16.1721 17.7197 15.7014L14.6762 13.4902C14.3865 13.2797 13.9942 13.2797 13.7044 13.4902L10.6609 15.7014C10.0131 16.1721 9.14146 15.5388 9.38891 14.7772L10.5514 11.1994C10.6621 10.8588 10.5409 10.4857 10.2511 10.2752L7.20765 8.06394C6.55981 7.59327 6.89275 6.56857 7.69352 6.56857H11.4555C11.8136 6.56857 12.131 6.33798 12.2416 5.99739L13.4041 2.41956Z" fill="#B9A779"/>
</svg>
