<svg width="119" height="41" viewBox="0 0 119 41" fill="none" xmlns="http://www.w3.org/2000/svg">
<path d="M118.758 23.6197V9.06099C118.758 8.79954 118.758 8.66881 118.677 8.58759C118.595 8.50637 118.465 8.50637 118.203 8.50637H113.628C113.366 8.50637 113.235 8.50637 113.154 8.58759C113.073 8.66881 113.073 8.79954 113.073 9.06099V23.6197C113.073 23.8812 113.073 24.0119 113.154 24.0931C113.235 24.1744 113.366 24.1744 113.628 24.1744H118.203C118.465 24.1744 118.595 24.1744 118.677 24.0931C118.758 24.0119 118.758 23.8812 118.758 23.6197Z" fill="#B9A779"/>
<path d="M113.073 3.30682V7.74377C113.073 8.00522 113.073 8.13594 112.992 8.21717C112.911 8.29839 112.78 8.29839 112.518 8.29839H108.683C108.624 8.29839 108.595 8.29839 108.566 8.3046C108.537 8.31081 108.512 8.32241 108.46 8.34562C107.825 8.63227 107.5 8.87955 107.388 9.82359L107.595 23.1376C107.596 23.1708 107.596 23.1874 107.594 23.204C107.592 23.2205 107.589 23.2367 107.581 23.269L107.581 23.2693C106.743 26.9346 105.493 28.1071 102.87 29.5805L102.87 29.5806C102.807 29.6156 102.776 29.6332 102.741 29.6422C102.707 29.6512 102.671 29.6512 102.599 29.6512H96.8504C96.5889 29.6512 96.4582 29.6512 96.377 29.57C96.2957 29.4888 96.2957 29.3581 96.2957 29.0966V24.729C96.2957 24.4675 96.2957 24.3368 96.377 24.2556C96.4582 24.1744 96.5889 24.1744 96.8504 24.1744H100.882C100.912 24.1744 100.927 24.1744 100.944 24.1724C100.96 24.1705 100.973 24.1674 100.998 24.1613C101.437 24.0555 101.914 23.8015 101.981 23.2038V8.39252C101.981 8.34538 101.981 8.3218 101.985 8.29849C101.989 8.27519 101.996 8.25298 102.012 8.20857C103.076 5.20484 104.211 3.98589 107.149 2.7926C107.199 2.77252 107.223 2.76248 107.25 2.75734C107.276 2.7522 107.303 2.7522 107.356 2.7522H112.518C112.78 2.7522 112.911 2.7522 112.992 2.83342C113.073 2.91464 113.073 3.04537 113.073 3.30682Z" fill="#B9A779"/>
<path d="M91.0962 24.105H96.1571C96.1954 24.105 96.2264 24.074 96.2264 24.0357V8.64502C96.2264 8.38357 96.2264 8.25285 96.1452 8.17163C96.064 8.09041 95.9332 8.09041 95.6718 8.09041H91.0962C90.8347 8.09041 90.704 8.09041 90.6228 8.17163C90.5416 8.25285 90.5416 8.38357 90.5416 8.64502V23.5504C90.5416 23.8119 90.5416 23.9426 90.6228 24.0238C90.704 24.105 90.8347 24.105 91.0962 24.105Z" fill="#B9A779"/>
<path d="M92.6907 25.4916H94.424C94.6854 25.4916 94.8161 25.4916 94.8973 25.5728C94.9785 25.654 94.9785 25.7847 94.9785 26.0462V27.5714H93.2453C92.9839 27.5714 92.8532 27.5714 92.7719 27.6526C92.6907 27.7338 92.6907 27.8646 92.6907 28.126V29.0966C92.6907 29.3581 92.6907 29.4888 92.6095 29.57C92.5283 29.6512 92.3975 29.6512 92.1361 29.6512H91.3735C91.112 29.6512 90.9813 29.6512 90.9001 29.57C90.8189 29.4888 90.8189 29.3581 90.8189 29.0967V26.7395C90.8189 26.1155 91.7895 25.4916 92.6907 25.4916Z" fill="#B9A779"/>
<path d="M67.9408 16.7563V12.0421C67.9408 11.7806 67.9408 11.6499 68.0221 11.5687C68.1033 11.4874 68.234 11.4874 68.4955 11.4874H78.3184C78.3638 11.4874 78.3865 11.4874 78.4089 11.4911C78.4313 11.4948 78.453 11.5022 78.4964 11.5169C81.8273 12.6449 83.4554 13.5479 84.6145 16.6634L84.6146 16.6635C84.6315 16.709 84.64 16.7318 84.6443 16.7561C84.6487 16.7805 84.6487 16.805 84.6487 16.8541V23.6197C84.6487 23.8812 84.6487 24.0119 84.5675 24.0931C84.4863 24.1744 84.3556 24.1744 84.0941 24.1744H79.5185V29.0966C79.5185 29.3581 79.5185 29.4888 79.4373 29.57C79.3561 29.6512 79.2253 29.6512 78.9639 29.6512H62.1078C62.0433 29.6512 62.0111 29.6512 61.9798 29.6439C61.9486 29.6365 61.9196 29.6221 61.8616 29.5933C58.7448 28.0444 57.7445 26.9362 57.2754 24.6446C57.27 24.6181 57.2672 24.6048 57.2658 24.5909C57.2644 24.5769 57.2644 24.5631 57.2644 24.5355V12.0421C57.2644 11.7806 57.2644 11.6499 57.3456 11.5687C57.4269 11.4874 57.5576 11.4874 57.819 11.4874H61.4241C61.6855 11.4874 61.8162 11.4874 61.8975 11.5687C61.9787 11.6499 61.9787 11.7806 61.9787 12.0421V23.244C61.9787 23.2945 61.9787 23.3197 61.9838 23.3458C61.9888 23.372 61.9972 23.3929 62.0141 23.4346C62.2734 24.0778 62.6205 24.2378 63.5039 24.1744H79.5185V18.5588C79.5487 17.7684 79.2427 17.4548 78.5369 17.0384C78.4754 17.0021 78.4446 16.9839 78.4087 16.9741C78.3729 16.9643 78.3359 16.9643 78.2619 16.9643H68.1488C68.034 16.9643 67.9408 16.8712 67.9408 16.7563Z" fill="#B9A779"/>
<path d="M56.7791 29.2353V24.7983C56.7791 24.6691 56.7791 24.6045 56.758 24.5535C56.7299 24.4856 56.6759 24.4316 56.6079 24.4035C56.557 24.3823 56.4924 24.3823 56.3632 24.3823H53.1048C51.5578 24.3978 51.0094 24.1707 50.8863 23.1344V3.30682C50.8863 3.04537 50.8863 2.91464 50.8051 2.83342C50.7239 2.7522 50.5931 2.7522 50.3317 2.7522H46.172C45.9106 2.7522 45.7799 2.7522 45.6986 2.83342C45.6174 2.91464 45.6174 3.04537 45.6174 3.30682V24.676C45.6174 24.7372 45.6174 24.7678 45.6241 24.7977C45.6308 24.8275 45.6438 24.8551 45.6697 24.9103C47.0452 27.8326 48.3586 28.8645 51.3628 29.7666C51.4015 29.7782 51.4208 29.784 51.4409 29.7869C51.4609 29.7899 51.4811 29.7899 51.5215 29.7899H56.2245C56.486 29.7899 56.6167 29.7899 56.6979 29.7087C56.7791 29.6274 56.7791 29.4967 56.7791 29.2353Z" fill="#B9A779"/>
<path d="M38.962 11.3488H34.3864C34.2572 11.3488 34.1926 11.3488 34.1416 11.3699C34.0737 11.398 34.0197 11.452 33.9915 11.52C33.9704 11.5709 33.9704 11.6355 33.9704 11.7648V23.1344C33.9808 23.9029 33.7505 24.0977 32.9998 24.105H30.9893C30.7279 24.105 30.5972 24.105 30.5159 24.1863C30.4347 24.2675 30.4347 24.3982 30.4347 24.6597V29.3046C30.4347 29.566 30.4347 29.6968 30.5159 29.778C30.5972 29.8592 30.7279 29.8592 30.9893 29.8592H34.5923C34.6625 29.8592 34.6977 29.8592 34.7316 29.8505C34.7655 29.8418 34.7962 29.825 34.8575 29.7913C37.5172 28.3307 38.614 27.1235 39.4936 24.1827C39.505 24.1443 39.5108 24.1251 39.5137 24.1052C39.5166 24.0852 39.5166 24.0651 39.5166 24.025V11.9034C39.5166 11.642 39.5166 11.5112 39.4354 11.43C39.3542 11.3488 39.2234 11.3488 38.962 11.3488Z" fill="#B9A779"/>
<path d="M28.3549 24.0287V12.3194C28.3549 12.0579 28.3549 11.9272 28.2737 11.846C28.1925 11.7648 28.0617 11.7648 27.8003 11.7648H23.086C22.8246 11.7648 22.6938 11.7648 22.6126 11.846C22.5314 11.9272 22.5314 12.0579 22.5314 12.3194V23.1344C22.5506 23.9325 22.2712 24.1398 21.2835 24.105H6.37812C6.11667 24.105 5.98594 24.105 5.90472 24.0238C5.8235 23.9426 5.8235 23.8119 5.8235 23.5504V18.7524C5.8235 18.7243 5.8235 18.7102 5.8251 18.6954C5.82669 18.6806 5.82938 18.6682 5.83476 18.6436C5.98579 17.9509 6.3184 17.5942 7.22694 17.099C7.28592 17.0669 7.31541 17.0508 7.34911 17.0422C7.38281 17.0336 7.41738 17.0336 7.48651 17.0336H16.5692C16.8307 17.0336 16.9614 17.0336 17.0426 16.9524C17.1239 16.8712 17.1239 16.7405 17.1239 16.479V11.9034C17.1239 11.642 17.1239 11.5112 17.0426 11.43C16.9614 11.3488 16.8307 11.3488 16.5692 11.3488H6.32676C6.28306 11.3488 6.26121 11.3488 6.23958 11.3522C6.21796 11.3557 6.19708 11.3625 6.15533 11.3761C2.32974 12.6235 0.841832 13.9882 0.0110219 18.0881C0.00551991 18.1153 0.00276894 18.1289 0.00138447 18.1427C0 18.1565 0 18.1702 0 18.1978V24.2437C0 24.5051 0 24.6359 0.0812221 24.7171C0.162444 24.7983 0.293169 24.7983 0.554619 24.7983H5.26888C5.53033 24.7983 5.66106 24.7983 5.74228 24.8795C5.8235 24.9608 5.8235 25.0915 5.8235 25.3529V29.3046C5.8235 29.566 5.8235 29.6968 5.90472 29.778C5.98594 29.8592 6.11667 29.8592 6.37812 29.8592H22.4569C22.4942 29.8592 22.5128 29.8592 22.5314 29.8567C22.5499 29.8542 22.568 29.8492 22.6041 29.8392L22.6041 29.8392C25.726 28.9772 27.2279 28.0672 28.3338 24.1797C28.3443 24.1427 28.3496 24.1243 28.3522 24.1052C28.3549 24.0861 28.3549 24.067 28.3549 24.0287Z" fill="#B9A779"/>
<path d="M70.6648 1.75124C70.7894 1.36801 71.3315 1.36801 71.4561 1.75124L72.041 3.55165C72.0967 3.72303 72.2564 3.83907 72.4366 3.83907H74.3297C74.7327 3.83907 74.9002 4.35471 74.5742 4.59156L73.0427 5.70427C72.8969 5.81019 72.8359 5.99794 72.8916 6.16933L73.4766 7.96974C73.6011 8.35297 73.1625 8.67165 72.8365 8.4348L71.3049 7.32209C71.1592 7.21616 70.9617 7.21616 70.8159 7.32209L69.2844 8.4348C68.9584 8.67165 68.5198 8.35297 68.6443 7.96974L69.2293 6.16933C69.285 5.99794 69.224 5.81019 69.0782 5.70427L67.5467 4.59156C67.2207 4.35471 67.3882 3.83907 67.7912 3.83907H69.6842C69.8645 3.83907 70.0242 3.72303 70.0799 3.55165L70.6648 1.75124Z" fill="#B9A779"/>
<path d="M59.4339 32.1167C59.5584 31.7334 60.1006 31.7334 60.2251 32.1167L60.8101 33.9171C60.8658 34.0884 61.0255 34.2045 61.2057 34.2045H63.0987C63.5017 34.2045 63.6692 34.7201 63.3432 34.957L61.8117 36.0697C61.6659 36.1756 61.6049 36.3634 61.6606 36.5347L62.2456 38.3352C62.3701 38.7184 61.9315 39.0371 61.6055 38.8002L60.074 37.6875C59.9282 37.5816 59.7308 37.5816 59.585 37.6875L58.0535 38.8002C57.7275 39.0371 57.2889 38.7184 57.4134 38.3352L57.9984 36.5347C58.054 36.3634 57.993 36.1756 57.8472 36.0697L56.3157 34.957C55.9897 34.7201 56.1573 34.2045 56.5602 34.2045H58.4533C58.6335 34.2045 58.7932 34.0885 58.8489 33.9171L59.4339 32.1167Z" fill="#B9A779"/>
<path d="M26.1568 32.1167C26.2813 31.7334 26.8235 31.7334 26.948 32.1167L27.533 33.9171C27.5887 34.0884 27.7484 34.2045 27.9286 34.2045H29.8216C30.2246 34.2045 30.3921 34.7201 30.0661 34.957L28.5346 36.0697C28.3888 36.1756 28.3278 36.3634 28.3835 36.5347L28.9685 38.3352C29.093 38.7184 28.6544 39.0371 28.3284 38.8002L26.7969 37.6875C26.6511 37.5816 26.4537 37.5816 26.3079 37.6875L24.7764 38.8002C24.4504 39.0371 24.0118 38.7184 24.1363 38.3352L24.7213 36.5347C24.7769 36.3634 24.7159 36.1756 24.5701 36.0697L23.0386 34.957C22.7126 34.7201 22.8802 34.2045 23.2831 34.2045H25.1762C25.3564 34.2045 25.5161 34.0885 25.5718 33.9171L26.1568 32.1167Z" fill="#B9A779"/>
<path d="M14.0938 1.75124C14.2183 1.36801 14.7605 1.36801 14.885 1.75124L15.47 3.55165C15.5257 3.72303 15.6854 3.83907 15.8656 3.83907H17.7587C18.1616 3.83907 18.3292 4.35471 18.0032 4.59156L16.4716 5.70427C16.3258 5.81019 16.2648 5.99794 16.3205 6.16933L16.9055 7.96974C17.03 8.35297 16.5914 8.67165 16.2654 8.4348L14.7339 7.32209C14.5881 7.21616 14.3907 7.21616 14.2449 7.32209L12.7134 8.4348C12.3874 8.67165 11.9488 8.35297 12.0733 7.96974L12.6583 6.16933C12.714 5.99794 12.653 5.81019 12.5072 5.70427L10.9756 4.59156C10.6496 4.35471 10.8172 3.83907 11.2201 3.83907H13.1132C13.2934 3.83907 13.4531 3.72303 13.5088 3.55165L14.0938 1.75124Z" fill="#B9A779"/>
<path d="M18.8079 32.1167C18.9324 31.7334 19.4746 31.7334 19.5991 32.1167L20.1841 33.9171C20.2398 34.0884 20.3995 34.2045 20.5797 34.2045H22.4728C22.8757 34.2045 23.0433 34.7201 22.7173 34.957L21.1857 36.0697C21.04 36.1756 20.979 36.3634 21.0346 36.5347L21.6196 38.3352C21.7441 38.7184 21.3055 39.0371 20.9795 38.8002L19.448 37.6875C19.3022 37.5816 19.1048 37.5816 18.959 37.6875L17.4275 38.8002C17.1015 39.0371 16.6629 38.7184 16.7874 38.3352L17.3724 36.5347C17.4281 36.3634 17.3671 36.1756 17.2213 36.0697L15.6898 34.957C15.3638 34.7201 15.5313 34.2045 15.9343 34.2045H17.8273C18.0075 34.2045 18.1672 34.0885 18.2229 33.9171L18.8079 32.1167Z" fill="#B9A779"/>
<path d="M6.74492 1.75124C6.86944 1.36801 7.41161 1.36801 7.53613 1.75124L8.12112 3.55165C8.1768 3.72303 8.33651 3.83907 8.51672 3.83907H10.4098C10.8127 3.83907 10.9803 4.35471 10.6543 4.59156L9.12276 5.70427C8.97697 5.81019 8.91597 5.99794 8.97165 6.16933L9.55664 7.96974C9.68116 8.35297 9.24253 8.67165 8.91654 8.4348L7.38502 7.32209C7.23923 7.21616 7.04182 7.21616 6.89603 7.32209L5.36451 8.4348C5.03851 8.67165 4.59989 8.35297 4.72441 7.96974L5.30939 6.16933C5.36508 5.99794 5.30408 5.81019 5.15828 5.70427L3.62677 4.59156C3.30077 4.35471 3.46831 3.83907 3.87127 3.83907H5.76432C5.94453 3.83907 6.10424 3.72303 6.15993 3.55165L6.74492 1.75124Z" fill="#B9A779"/>
</svg>
